<svg width="12" height="12" viewBox="0 0 12 12" fill="none" xmlns="http://www.w3.org/2000/svg">
<mask id="mask0_862_214" style="mask-type:alpha" maskUnits="userSpaceOnUse" x="0" y="0" width="12" height="12">
<path d="M6 4.42834C4.98375 4.42834 4.125 5.28709 4.125 6.30334C4.125 7.31959 4.98375 8.17834 6 8.17834C7.01625 8.17834 7.875 7.31959 7.875 6.30334C7.875 5.28709 7.01625 4.42834 6 4.42834Z" fill="#006FFD"/>
<path d="M10.8 2.10335H9.2484L7.6242 0.479145C7.56858 0.42332 7.50246 0.379047 7.42966 0.348876C7.35686 0.318705 7.27881 0.303231 7.2 0.303345H4.8C4.72119 0.303231 4.64314 0.318705 4.57034 0.348876C4.49754 0.379047 4.43142 0.42332 4.3758 0.479145L2.7516 2.10335H1.2C0.5382 2.10335 0 2.64155 0 3.30335V9.90335C0 10.5651 0.5382 11.1033 1.2 11.1033H10.8C11.4618 11.1033 12 10.5651 12 9.90335V3.30335C12 2.64155 11.4618 2.10335 10.8 2.10335ZM6 9.30335C4.374 9.30335 3 7.92935 3 6.30335C3 4.67735 4.374 3.30335 6 3.30335C7.626 3.30335 9 4.67735 9 6.30335C9 7.92935 7.626 9.30335 6 9.30335Z" fill="#006FFD"/>
</mask>
<g mask="url(#mask0_862_214)">
<rect width="12" height="12" fill="#326229"/>
</g>
</svg>
