<svg width="70" height="67" viewBox="0 0 70 67" fill="none" xmlns="http://www.w3.org/2000/svg">
<g clip-path="url(#clip0_818_1879)">
<path d="M35 14V20L39 22M45 20C45 25.5228 40.5228 30 35 30C29.4772 30 25 25.5228 25 20C25 14.4772 29.4772 10 35 10C40.5228 10 45 14.4772 45 20Z" stroke="#326229" stroke-width="2.5" stroke-linecap="round" stroke-linejoin="round"/>
</g>
<path d="M9.28258 52V41.8182H13.1008C13.883 41.8182 14.5392 41.9541 15.0695 42.2259C15.6031 42.4976 16.0058 42.8788 16.2776 43.3693C16.5527 43.8565 16.6903 44.425 16.6903 45.0746C16.6903 45.7275 16.551 46.2943 16.2726 46.7749C15.9975 47.2521 15.5915 47.6217 15.0546 47.8835C14.5177 48.142 13.8581 48.2713 13.0759 48.2713H10.3564V46.7401H12.8273C13.2847 46.7401 13.6592 46.6771 13.9509 46.5511C14.2426 46.4219 14.458 46.2346 14.5972 45.9893C14.7397 45.7408 14.811 45.4358 14.811 45.0746C14.811 44.7133 14.7397 44.4051 14.5972 44.1499C14.4547 43.8913 14.2376 43.6958 13.9459 43.5632C13.6543 43.4273 13.2781 43.3594 12.8174 43.3594H11.127V52H9.28258ZM14.5425 47.3864L17.0631 52H15.0049L12.529 47.3864H14.5425ZM18.3085 52V44.3636H20.1082V52H18.3085ZM19.2133 43.2798C18.9283 43.2798 18.683 43.1854 18.4775 42.9964C18.272 42.8042 18.1693 42.5739 18.1693 42.3054C18.1693 42.0336 18.272 41.8033 18.4775 41.6143C18.683 41.4221 18.9283 41.326 19.2133 41.326C19.5017 41.326 19.747 41.4221 19.9491 41.6143C20.1546 41.8033 20.2574 42.0336 20.2574 42.3054C20.2574 42.5739 20.1546 42.8042 19.9491 42.9964C19.747 43.1854 19.5017 43.2798 19.2133 43.2798ZM23.5349 52L21.3772 44.3636H23.2117L24.5541 49.733H24.6237L25.9958 44.3636H27.8105L29.1826 49.7031H29.2572L30.5796 44.3636H32.4191L30.2565 52H28.3822L26.9504 46.8395H26.846L25.4142 52H23.5349ZM35.8731 52.1541C35.3892 52.1541 34.9534 52.0679 34.5656 51.8956C34.1811 51.7199 33.8762 51.4614 33.6508 51.12C33.4288 50.7786 33.3177 50.3577 33.3177 49.8572C33.3177 49.4264 33.3973 49.0701 33.5564 48.7884C33.7155 48.5066 33.9326 48.2812 34.2077 48.1122C34.4827 47.9432 34.7926 47.8156 35.1373 47.7294C35.4854 47.6399 35.845 47.5753 36.2162 47.5355C36.6636 47.4891 37.0265 47.4477 37.305 47.4112C37.5834 47.3714 37.7855 47.3118 37.9115 47.2322C38.0407 47.1494 38.1054 47.0218 38.1054 46.8494V46.8196C38.1054 46.4451 37.9943 46.1551 37.7723 45.9496C37.5502 45.7441 37.2304 45.6413 36.8128 45.6413C36.372 45.6413 36.0223 45.7375 35.7638 45.9297C35.5086 46.1219 35.3362 46.349 35.2467 46.6108L33.5663 46.3722C33.6989 45.9081 33.9176 45.5204 34.2226 45.2088C34.5275 44.8939 34.9004 44.6586 35.3412 44.5028C35.782 44.3438 36.2692 44.2642 36.8028 44.2642C37.1707 44.2642 37.537 44.3073 37.9015 44.3935C38.2661 44.4796 38.5992 44.6222 38.9008 44.821C39.2024 45.0166 39.4444 45.2834 39.6267 45.6214C39.8123 45.9595 39.9051 46.3821 39.9051 46.8892V52H38.175V50.951H38.1153C38.0059 51.1631 37.8518 51.362 37.653 51.5476C37.4574 51.7299 37.2105 51.8774 36.9122 51.9901C36.6172 52.0994 36.2709 52.1541 35.8731 52.1541ZM36.3405 50.8317C36.7017 50.8317 37.0149 50.7604 37.2801 50.6179C37.5452 50.4721 37.7491 50.2798 37.8916 50.0412C38.0374 49.8026 38.1104 49.5424 38.1104 49.2607V48.3608C38.054 48.4072 37.9579 48.4503 37.822 48.4901C37.6894 48.5298 37.5403 48.5646 37.3746 48.5945C37.2088 48.6243 37.0448 48.6508 36.8824 48.674C36.72 48.6972 36.5791 48.7171 36.4598 48.7337C36.1913 48.7701 35.951 48.8298 35.7389 48.9126C35.5268 48.9955 35.3594 49.1115 35.2368 49.2607C35.1141 49.4065 35.0528 49.5954 35.0528 49.8274C35.0528 50.1589 35.1738 50.4091 35.4157 50.5781C35.6577 50.7472 35.9659 50.8317 36.3405 50.8317ZM42.5599 54.8636C42.3147 54.8636 42.0876 54.8438 41.8788 54.804C41.6733 54.7675 41.5093 54.7244 41.3866 54.6747L41.8042 53.2727C42.0661 53.349 42.2997 53.3854 42.5052 53.3821C42.7107 53.3788 42.8914 53.3142 43.0471 53.1882C43.2062 53.0656 43.3405 52.8601 43.4498 52.5717L43.604 52.1591L40.8348 44.3636H42.7439L44.5038 50.1307H44.5834L46.3483 44.3636H48.2623L45.2048 52.9247C45.0623 53.3291 44.8734 53.6754 44.6381 53.9638C44.4027 54.2554 44.1144 54.4775 43.773 54.63C43.4349 54.7857 43.0306 54.8636 42.5599 54.8636ZM51.4864 52.1541C51.0025 52.1541 50.5667 52.0679 50.1789 51.8956C49.7944 51.7199 49.4895 51.4614 49.2641 51.12C49.0421 50.7786 48.931 50.3577 48.931 49.8572C48.931 49.4264 49.0106 49.0701 49.1697 48.7884C49.3287 48.5066 49.5458 48.2812 49.8209 48.1122C50.096 47.9432 50.4059 47.8156 50.7506 47.7294C51.0986 47.6399 51.4582 47.5753 51.8295 47.5355C52.2769 47.4891 52.6398 47.4477 52.9182 47.4112C53.1966 47.3714 53.3988 47.3118 53.5248 47.2322C53.654 47.1494 53.7187 47.0218 53.7187 46.8494V46.8196C53.7187 46.4451 53.6076 46.1551 53.3856 45.9496C53.1635 45.7441 52.8437 45.6413 52.426 45.6413C51.9852 45.6413 51.6356 45.7375 51.377 45.9297C51.1218 46.1219 50.9495 46.349 50.86 46.6108L49.1796 46.3722C49.3122 45.9081 49.5309 45.5204 49.8358 45.2088C50.1408 44.8939 50.5136 44.6586 50.9545 44.5028C51.3953 44.3438 51.8825 44.2642 52.4161 44.2642C52.784 44.2642 53.1502 44.3073 53.5148 44.3935C53.8794 44.4796 54.2125 44.6222 54.5141 44.821C54.8157 45.0166 55.0577 45.2834 55.24 45.6214C55.4256 45.9595 55.5184 46.3821 55.5184 46.8892V52H53.7883V50.951H53.7286C53.6192 51.1631 53.4651 51.362 53.2662 51.5476C53.0707 51.7299 52.8238 51.8774 52.5255 51.9901C52.2305 52.0994 51.8841 52.1541 51.4864 52.1541ZM51.9537 50.8317C52.315 50.8317 52.6282 50.7604 52.8934 50.6179C53.1585 50.4721 53.3624 50.2798 53.5049 50.0412C53.6507 49.8026 53.7236 49.5424 53.7236 49.2607V48.3608C53.6673 48.4072 53.5712 48.4503 53.4353 48.4901C53.3027 48.5298 53.1536 48.5646 52.9878 48.5945C52.8221 48.6243 52.6581 48.6508 52.4956 48.674C52.3332 48.6972 52.1924 48.7171 52.0731 48.7337C51.8046 48.7701 51.5643 48.8298 51.3522 48.9126C51.1401 48.9955 50.9727 49.1115 50.8501 49.2607C50.7274 49.4065 50.6661 49.5954 50.6661 49.8274C50.6661 50.1589 50.7871 50.4091 51.029 50.5781C51.271 50.7472 51.5792 50.8317 51.9537 50.8317ZM61.1412 44.3636V45.7557H56.7513V44.3636H61.1412ZM57.8351 42.5341H59.6349V49.7031C59.6349 49.9451 59.6713 50.1307 59.7442 50.2599C59.8205 50.3859 59.9199 50.4721 60.0425 50.5185C60.1652 50.5649 60.301 50.5881 60.4502 50.5881C60.5629 50.5881 60.6656 50.5798 60.7584 50.5632C60.8546 50.5466 60.9275 50.5317 60.9772 50.5185L61.2805 51.9254C61.1843 51.9586 61.0468 51.995 60.8678 52.0348C60.6921 52.0746 60.4767 52.0978 60.2215 52.1044C59.7707 52.1177 59.3647 52.0497 59.0035 51.9006C58.6422 51.7481 58.3555 51.5128 58.1434 51.1946C57.9346 50.8764 57.8318 50.4787 57.8351 50.0014V42.5341Z" fill="#326229"/>
<defs>
<clipPath id="clip0_818_1879">
<rect width="24" height="24" fill="white" transform="translate(23 8)"/>
</clipPath>
</defs>
</svg>
