<svg width="61" height="67" viewBox="0 0 61 67" fill="none" xmlns="http://www.w3.org/2000/svg">
<path d="M27.5 30V20H33.5V30M21.5 17L30.5 10L39.5 17V28C39.5 28.5304 39.2893 29.0391 38.9142 29.4142C38.5391 29.7893 38.0304 30 37.5 30H23.5C22.9696 30 22.4609 29.7893 22.0858 29.4142C21.7107 29.0391 21.5 28.5304 21.5 28V17Z" stroke="#999999" stroke-width="2.5" stroke-linecap="round" stroke-linejoin="round"/>
<path d="M3.33336 52V41.8182H7.23109C7.96689 41.8182 8.57839 41.9342 9.06561 42.1662C9.55614 42.3949 9.92238 42.7081 10.1643 43.1058C10.4096 43.5036 10.5322 43.9543 10.5322 44.4581C10.5322 44.8724 10.4527 45.227 10.2936 45.522C10.1345 45.8137 9.92072 46.0507 9.65225 46.233C9.38379 46.4152 9.08384 46.5462 8.7524 46.6257V46.7251C9.11367 46.745 9.46002 46.8561 9.79146 47.0582C10.1262 47.2571 10.3997 47.5388 10.6118 47.9034C10.8239 48.268 10.93 48.7088 10.93 49.2259C10.93 49.7528 10.8024 50.2268 10.5471 50.6477C10.2919 51.0653 9.90746 51.3951 9.39373 51.6371C8.88 51.879 8.23369 52 7.45481 52H3.33336ZM5.17782 50.4588H7.16149C7.831 50.4588 8.31324 50.3312 8.60822 50.076C8.90652 49.8175 9.05566 49.486 9.05566 49.0817C9.05566 48.7801 8.98109 48.5083 8.83194 48.2663C8.68279 48.0211 8.47067 47.8288 8.19558 47.6896C7.92048 47.5471 7.59236 47.4759 7.2112 47.4759H5.17782V50.4588ZM5.17782 46.1484H7.0024C7.32058 46.1484 7.60727 46.0904 7.86248 45.9744C8.11769 45.8551 8.31821 45.6877 8.46405 45.4723C8.61319 45.2536 8.68777 44.995 8.68777 44.6967C8.68777 44.3023 8.54856 43.9775 8.27015 43.7223C7.99506 43.4671 7.58573 43.3395 7.04217 43.3395H5.17782V46.1484ZM15.8357 52.1491C15.07 52.1491 14.4088 51.9901 13.852 51.6719C13.2985 51.3504 12.8726 50.8963 12.5743 50.3097C12.276 49.7197 12.1269 49.0253 12.1269 48.2266C12.1269 47.4411 12.276 46.7517 12.5743 46.1584C12.8759 45.5618 13.2968 45.0978 13.8371 44.7663C14.3773 44.4316 15.012 44.2642 15.7412 44.2642C16.2119 44.2642 16.656 44.3404 17.0736 44.4929C17.4945 44.642 17.8657 44.8741 18.1872 45.1889C18.512 45.5038 18.7673 45.9048 18.9529 46.392C19.1385 46.8759 19.2313 47.4527 19.2313 48.1222V48.674H12.972V47.4609H17.5061C17.5028 47.1162 17.4282 46.8097 17.2824 46.5412C17.1366 46.2694 16.9327 46.0556 16.6709 45.8999C16.4124 45.7441 16.1108 45.6662 15.7661 45.6662C15.3982 45.6662 15.075 45.7557 14.7966 45.9347C14.5182 46.1103 14.3011 46.3423 14.1453 46.6307C13.9929 46.9157 13.915 47.2289 13.9117 47.5703V48.6293C13.9117 49.0734 13.9929 49.4545 14.1553 49.7727C14.3177 50.0876 14.5447 50.3295 14.8364 50.4986C15.128 50.6643 15.4694 50.7472 15.8605 50.7472C16.1224 50.7472 16.3593 50.7107 16.5715 50.6378C16.7836 50.5616 16.9675 50.4505 17.1233 50.3047C17.2791 50.1589 17.3968 49.9782 17.4763 49.7628L19.1567 49.9517C19.0506 50.3958 18.8485 50.7836 18.5502 51.1151C18.2552 51.4432 17.8773 51.6984 17.4166 51.8807C16.9559 52.0597 16.4289 52.1491 15.8357 52.1491ZM20.7538 52V44.3636H22.4988V45.6364H22.5784C22.7176 45.1955 22.9562 44.8558 23.2943 44.6172C23.6357 44.3752 24.0251 44.2543 24.4626 44.2543C24.5621 44.2543 24.6731 44.2592 24.7957 44.2692C24.9217 44.2758 25.0261 44.2874 25.1089 44.304V45.9595C25.0327 45.933 24.9117 45.9098 24.746 45.8899C24.5836 45.8667 24.4262 45.8551 24.2737 45.8551C23.9456 45.8551 23.6506 45.9264 23.3888 46.0689C23.1302 46.2081 22.9264 46.402 22.7773 46.6506C22.6281 46.8991 22.5535 47.1858 22.5535 47.5107V52H20.7538ZM28.3653 52.1541C27.8814 52.1541 27.4456 52.0679 27.0578 51.8956C26.6733 51.7199 26.3684 51.4614 26.143 51.12C25.921 50.7786 25.8099 50.3577 25.8099 49.8572C25.8099 49.4264 25.8895 49.0701 26.0486 48.7884C26.2077 48.5066 26.4247 48.2812 26.6998 48.1122C26.9749 47.9432 27.2848 47.8156 27.6295 47.7294C27.9775 47.6399 28.3372 47.5753 28.7084 47.5355C29.1558 47.4891 29.5187 47.4477 29.7971 47.4112C30.0756 47.3714 30.2777 47.3118 30.4037 47.2322C30.5329 47.1494 30.5976 47.0218 30.5976 46.8494V46.8196C30.5976 46.4451 30.4865 46.1551 30.2645 45.9496C30.0424 45.7441 29.7226 45.6413 29.305 45.6413C28.8641 45.6413 28.5145 45.7375 28.2559 45.9297C28.0007 46.1219 27.8284 46.349 27.7389 46.6108L26.0585 46.3722C26.1911 45.9081 26.4098 45.5204 26.7148 45.2088C27.0197 44.8939 27.3925 44.6586 27.8334 44.5028C28.2742 44.3438 28.7614 44.2642 29.295 44.2642C29.6629 44.2642 30.0291 44.3073 30.3937 44.3935C30.7583 44.4796 31.0914 44.6222 31.393 44.821C31.6946 45.0166 31.9366 45.2834 32.1189 45.6214C32.3045 45.9595 32.3973 46.3821 32.3973 46.8892V52H30.6672V50.951H30.6075C30.4981 51.1631 30.344 51.362 30.1452 51.5476C29.9496 51.7299 29.7027 51.8774 29.4044 51.9901C29.1094 52.0994 28.7631 52.1541 28.3653 52.1541ZM28.8327 50.8317C29.1939 50.8317 29.5071 50.7604 29.7723 50.6179C30.0374 50.4721 30.2413 50.2798 30.3838 50.0412C30.5296 49.8026 30.6025 49.5424 30.6025 49.2607V48.3608C30.5462 48.4072 30.4501 48.4503 30.3142 48.4901C30.1816 48.5298 30.0325 48.5646 29.8667 48.5945C29.701 48.6243 29.537 48.6508 29.3746 48.674C29.2122 48.6972 29.0713 48.7171 28.952 48.7337C28.6835 48.7701 28.4432 48.8298 28.2311 48.9126C28.019 48.9955 27.8516 49.1115 27.729 49.2607C27.6063 49.4065 27.545 49.5954 27.545 49.8274C27.545 50.1589 27.666 50.4091 27.9079 50.5781C28.1499 50.7472 28.4581 50.8317 28.8327 50.8317ZM36.0067 47.5256V52H34.2069V44.3636H35.9271V45.6612H36.0166C36.1923 45.2337 36.4723 44.8939 36.8568 44.642C37.2446 44.3902 37.7235 44.2642 38.2936 44.2642C38.8206 44.2642 39.2796 44.3769 39.6707 44.6023C40.0651 44.8277 40.3701 45.1541 40.5855 45.5817C40.8042 46.0092 40.912 46.5279 40.9086 47.1378V52H39.1089V47.4162C39.1089 46.9058 38.9764 46.5064 38.7112 46.218C38.4494 45.9297 38.0864 45.7855 37.6224 45.7855C37.3076 45.7855 37.0275 45.8551 36.7822 45.9943C36.5403 46.1302 36.3497 46.3274 36.2105 46.5859C36.0746 46.8445 36.0067 47.1577 36.0067 47.5256ZM45.572 52.1342C44.9721 52.1342 44.4352 51.9801 43.9612 51.6719C43.4872 51.3636 43.1127 50.9162 42.8376 50.3295C42.5625 49.7429 42.425 49.0303 42.425 48.1918C42.425 47.3433 42.5642 46.6274 42.8426 46.044C43.1243 45.4574 43.5038 45.0149 43.9811 44.7166C44.4584 44.415 44.9903 44.2642 45.577 44.2642C46.0244 44.2642 46.3923 44.3404 46.6807 44.4929C46.969 44.642 47.1977 44.8227 47.3667 45.0348C47.5358 45.2436 47.6667 45.4408 47.7595 45.6264H47.8341V41.8182H49.6388V52H47.8689V50.7969H47.7595C47.6667 50.9825 47.5325 51.1797 47.3568 51.3885C47.1811 51.594 46.9491 51.7696 46.6608 51.9155C46.3724 52.0613 46.0095 52.1342 45.572 52.1342ZM46.0741 50.6577C46.4553 50.6577 46.7801 50.5549 47.0486 50.3494C47.317 50.1406 47.5209 49.8506 47.6601 49.4794C47.7993 49.1082 47.8689 48.6757 47.8689 48.1818C47.8689 47.688 47.7993 47.2588 47.6601 46.8942C47.5242 46.5296 47.322 46.2462 47.0535 46.044C46.7884 45.8419 46.4619 45.7408 46.0741 45.7408C45.6731 45.7408 45.3383 45.8452 45.0699 46.054C44.8014 46.2628 44.5992 46.5511 44.4633 46.919C44.3274 47.2869 44.2595 47.7079 44.2595 48.1818C44.2595 48.6591 44.3274 49.085 44.4633 49.4595C44.6025 49.8307 44.8064 50.1241 45.0748 50.3395C45.3466 50.5516 45.6797 50.6577 46.0741 50.6577ZM53.754 52.1541C53.2701 52.1541 52.8343 52.0679 52.4465 51.8956C52.062 51.7199 51.7571 51.4614 51.5317 51.12C51.3096 50.7786 51.1986 50.3577 51.1986 49.8572C51.1986 49.4264 51.2781 49.0701 51.4372 48.7884C51.5963 48.5066 51.8134 48.2812 52.0885 48.1122C52.3636 47.9432 52.6735 47.8156 53.0182 47.7294C53.3662 47.6399 53.7258 47.5753 54.097 47.5355C54.5445 47.4891 54.9074 47.4477 55.1858 47.4112C55.4642 47.3714 55.6664 47.3118 55.7923 47.2322C55.9216 47.1494 55.9862 47.0218 55.9862 46.8494V46.8196C55.9862 46.4451 55.8752 46.1551 55.6531 45.9496C55.4311 45.7441 55.1112 45.6413 54.6936 45.6413C54.2528 45.6413 53.9031 45.7375 53.6446 45.9297C53.3894 46.1219 53.2171 46.349 53.1276 46.6108L51.4472 46.3722C51.5798 45.9081 51.7985 45.5204 52.1034 45.2088C52.4084 44.8939 52.7812 44.6586 53.222 44.5028C53.6628 44.3438 54.1501 44.2642 54.6837 44.2642C55.0516 44.2642 55.4178 44.3073 55.7824 44.3935C56.147 44.4796 56.4801 44.6222 56.7817 44.821C57.0833 45.0166 57.3253 45.2834 57.5075 45.6214C57.6932 45.9595 57.786 46.3821 57.786 46.8892V52H56.0558V50.951H55.9962C55.8868 51.1631 55.7327 51.362 55.5338 51.5476C55.3383 51.7299 55.0914 51.8774 54.7931 51.9901C54.4981 52.0994 54.1517 52.1541 53.754 52.1541ZM54.2213 50.8317C54.5826 50.8317 54.8958 50.7604 55.161 50.6179C55.4261 50.4721 55.6299 50.2798 55.7725 50.0412C55.9183 49.8026 55.9912 49.5424 55.9912 49.2607V48.3608C55.9349 48.4072 55.8387 48.4503 55.7029 48.4901C55.5703 48.5298 55.4211 48.5646 55.2554 48.5945C55.0897 48.6243 54.9256 48.6508 54.7632 48.674C54.6008 48.6972 54.46 48.7171 54.3406 48.7337C54.0722 48.7701 53.8319 48.8298 53.6198 48.9126C53.4076 48.9955 53.2403 49.1115 53.1176 49.2607C52.995 49.4065 52.9337 49.5954 52.9337 49.8274C52.9337 50.1589 53.0547 50.4091 53.2966 50.5781C53.5386 50.7472 53.8468 50.8317 54.2213 50.8317Z" fill="#999999"/>
</svg>
