<svg width="20" height="20" viewBox="0 0 20 20" fill="none" xmlns="http://www.w3.org/2000/svg">
<g clip-path="url(#clip0_862_720)">
<path d="M5.83333 9.16655V5.83327C5.83333 4.72822 6.27232 3.66843 7.05372 2.88704C7.83512 2.10565 8.89493 1.66667 10 1.66667C11.1051 1.66667 12.1649 2.10565 12.9463 2.88704C13.7277 3.66843 14.1667 4.72822 14.1667 5.83327V9.16655M4.16667 9.16655H15.8333C16.7538 9.16655 17.5 9.91273 17.5 10.8332V16.6664C17.5 17.5869 16.7538 18.3331 15.8333 18.3331H4.16667C3.24619 18.3331 2.5 17.5869 2.5 16.6664V10.8332C2.5 9.91273 3.24619 9.16655 4.16667 9.16655Z" stroke="#1E1E1E" stroke-width="2" stroke-linecap="round" stroke-linejoin="round"/>
</g>
<defs>
<clipPath id="clip0_862_720">
<rect width="20" height="19.9997" fill="white"/>
</clipPath>
</defs>
</svg>
