<svg width="52" height="67" viewBox="0 0 52 67" fill="none" xmlns="http://www.w3.org/2000/svg">
<path d="M34 29V27C34 25.9391 33.5786 24.9217 32.8284 24.1716C32.0783 23.4214 31.0609 23 30 23H22C20.9391 23 19.9217 23.4214 19.1716 24.1716C18.4214 24.9217 18 25.9391 18 27V29M30 15C30 17.2091 28.2091 19 26 19C23.7909 19 22 17.2091 22 15C22 12.7909 23.7909 11 26 11C28.2091 11 30 12.7909 30 15Z" stroke="#326229" stroke-width="2.5" stroke-linecap="round" stroke-linejoin="round"/>
<path d="M9.33336 52V41.8182H13.1515C13.9337 41.8182 14.59 41.964 15.1203 42.2557C15.6539 42.5473 16.0566 42.9484 16.3284 43.4588C16.6035 43.9659 16.741 44.5426 16.741 45.1889C16.741 45.8419 16.6035 46.4219 16.3284 46.929C16.0533 47.4361 15.6473 47.8355 15.1104 48.1271C14.5734 48.4155 13.9122 48.5597 13.1267 48.5597H10.5961V47.0433H12.8781C13.3355 47.0433 13.71 46.9638 14.0017 46.8047C14.2934 46.6456 14.5088 46.4268 14.648 46.1484C14.7905 45.87 14.8618 45.5502 14.8618 45.1889C14.8618 44.8277 14.7905 44.5095 14.648 44.2344C14.5088 43.9593 14.2917 43.7455 13.9967 43.593C13.705 43.4373 13.3289 43.3594 12.8682 43.3594H11.1778V52H9.33336ZM18.2636 52V44.3636H20.0086V45.6364H20.0882C20.2274 45.1955 20.466 44.8558 20.8041 44.6172C21.1454 44.3752 21.5349 44.2543 21.9724 44.2543C22.0718 44.2543 22.1829 44.2592 22.3055 44.2692C22.4314 44.2758 22.5358 44.2874 22.6187 44.304V45.9595C22.5425 45.933 22.4215 45.9098 22.2558 45.8899C22.0934 45.8667 21.9359 45.8551 21.7835 45.8551C21.4553 45.8551 21.1604 45.9264 20.8985 46.0689C20.64 46.2081 20.4362 46.402 20.287 46.6506C20.1379 46.8991 20.0633 47.1858 20.0633 47.5107V52H18.2636ZM26.8309 52.1491C26.0851 52.1491 25.4388 51.9851 24.892 51.657C24.3451 51.3288 23.9208 50.8698 23.6192 50.2798C23.3209 49.6899 23.1718 49.0005 23.1718 48.2116C23.1718 47.4228 23.3209 46.7318 23.6192 46.1385C23.9208 45.5452 24.3451 45.0845 24.892 44.7564C25.4388 44.4283 26.0851 44.2642 26.8309 44.2642C27.5766 44.2642 28.2229 44.4283 28.7698 44.7564C29.3167 45.0845 29.7393 45.5452 30.0376 46.1385C30.3392 46.7318 30.49 47.4228 30.49 48.2116C30.49 49.0005 30.3392 49.6899 30.0376 50.2798C29.7393 50.8698 29.3167 51.3288 28.7698 51.657C28.2229 51.9851 27.5766 52.1491 26.8309 52.1491ZM26.8408 50.7074C27.2452 50.7074 27.5832 50.5964 27.855 50.3743C28.1268 50.1489 28.329 49.8473 28.4616 49.4695C28.5974 49.0916 28.6654 48.6707 28.6654 48.2067C28.6654 47.7393 28.5974 47.3168 28.4616 46.9389C28.329 46.5578 28.1268 46.2545 27.855 46.0291C27.5832 45.8037 27.2452 45.6911 26.8408 45.6911C26.4265 45.6911 26.0818 45.8037 25.8067 46.0291C25.5349 46.2545 25.3311 46.5578 25.1952 46.9389C25.0626 47.3168 24.9964 47.7393 24.9964 48.2067C24.9964 48.6707 25.0626 49.0916 25.1952 49.4695C25.3311 49.8473 25.5349 50.1489 25.8067 50.3743C26.0818 50.5964 26.4265 50.7074 26.8408 50.7074ZM35.8854 44.3636V45.7557H31.3712V44.3636H35.8854ZM32.4997 52V43.6428C32.4997 43.129 32.6058 42.7015 32.8179 42.3601C33.0334 42.0187 33.3217 41.7635 33.683 41.5945C34.0442 41.4254 34.4453 41.3409 34.8861 41.3409C35.1977 41.3409 35.4744 41.3658 35.7164 41.4155C35.9583 41.4652 36.1373 41.5099 36.2533 41.5497L35.8953 42.9418C35.8191 42.9186 35.723 42.8954 35.607 42.8722C35.491 42.8456 35.3617 42.8324 35.2192 42.8324C34.8844 42.8324 34.6475 42.9136 34.5083 43.076C34.3724 43.2351 34.3044 43.4638 34.3044 43.7621V52H32.4997ZM37.2948 52V44.3636H39.0945V52H37.2948ZM38.1997 43.2798C37.9146 43.2798 37.6694 43.1854 37.4639 42.9964C37.2584 42.8042 37.1556 42.5739 37.1556 42.3054C37.1556 42.0336 37.2584 41.8033 37.4639 41.6143C37.6694 41.4221 37.9146 41.326 38.1997 41.326C38.488 41.326 38.7333 41.4221 38.9355 41.6143C39.141 41.8033 39.2437 42.0336 39.2437 42.3054C39.2437 42.5739 39.141 42.8042 38.9355 42.9964C38.7333 43.1854 38.488 43.2798 38.1997 43.2798ZM42.7449 41.8182V52H40.9452V41.8182H42.7449Z" fill="#326229"/>
</svg>
