<svg width="20" height="20" viewBox="0 0 20 20" fill="none" xmlns="http://www.w3.org/2000/svg">
<path d="M10 9.99984C9.08334 9.99984 8.29862 9.67346 7.64584 9.02069C6.99307 8.36792 6.66668 7.58321 6.66668 6.66656C6.66668 5.74991 6.99307 4.9652 7.64584 4.31243C8.29862 3.65967 9.08334 3.33328 10 3.33328C10.9167 3.33328 11.7014 3.65967 12.3542 4.31243C13.007 4.9652 13.3333 5.74991 13.3333 6.66656C13.3333 7.58321 13.007 8.36792 12.3542 9.02069C11.7014 9.67346 10.9167 9.99984 10 9.99984ZM3.33334 16.6664V14.3331C3.33334 13.8609 3.45487 13.4269 3.69793 13.031C3.94098 12.6352 4.2639 12.3331 4.66668 12.1248C5.52779 11.6943 6.40279 11.3713 7.29168 11.1561C8.18057 10.9408 9.08334 10.8332 10 10.8332C10.9167 10.8332 11.8195 10.9408 12.7083 11.1561C13.5972 11.3713 14.4722 11.6943 15.3333 12.1248C15.7361 12.3331 16.059 12.6352 16.3021 13.031C16.5451 13.4269 16.6667 13.8609 16.6667 14.3331V16.6664H3.33334ZM5.00001 14.9998H15V14.3331C15 14.1803 14.9618 14.0414 14.8854 13.9164C14.809 13.7914 14.7083 13.6942 14.5833 13.6248C13.8333 13.2498 13.0764 12.9685 12.3125 12.781C11.5486 12.5936 10.7778 12.4998 10 12.4998C9.22223 12.4998 8.4514 12.5936 7.68751 12.781C6.92362 12.9685 6.16668 13.2498 5.41668 13.6248C5.29168 13.6942 5.19098 13.7914 5.11459 13.9164C5.0382 14.0414 5.00001 14.1803 5.00001 14.3331V14.9998ZM10 8.3332C10.4583 8.3332 10.8507 8.17001 11.1771 7.84363C11.5035 7.51724 11.6667 7.12489 11.6667 6.66656C11.6667 6.20824 11.5035 5.81588 11.1771 5.4895C10.8507 5.16311 10.4583 4.99992 10 4.99992C9.54168 4.99992 9.14932 5.16311 8.82293 5.4895C8.49654 5.81588 8.33334 6.20824 8.33334 6.66656C8.33334 7.12489 8.49654 7.51724 8.82293 7.84363C9.14932 8.17001 9.54168 8.3332 10 8.3332Z" fill="#1D1B20"/>
</svg>
