<svg width="40" height="40" viewBox="0 0 40 40" fill="none" xmlns="http://www.w3.org/2000/svg">
<rect width="40" height="40" rx="8" fill="#F5F0E6"/>
<g clip-path="url(#clip0_818_1621)">
<path fill-rule="evenodd" clip-rule="evenodd" d="M28.9484 11.7566C28.9263 11.3768 28.6232 11.0737 28.2434 11.0516C21.1062 10.6325 15.3894 12.7812 12.9519 16.8125C12.107 18.1915 11.6906 19.7903 11.7556 21.4062C11.8091 22.8988 12.2441 24.4062 13.0484 25.8922L11.2194 27.7203C11.0298 27.9099 10.9558 28.1862 11.0252 28.4452C11.0945 28.7041 11.2968 28.9064 11.5558 28.9758C11.8147 29.0452 12.0911 28.9711 12.2806 28.7816L14.1087 26.9525C15.5938 27.7559 17.1022 28.1909 18.5938 28.2444C18.6981 28.2481 18.8022 28.25 18.9059 28.25C20.4169 28.254 21.8993 27.8379 23.1875 27.0481C27.2188 24.6106 29.3684 18.8947 28.9484 11.7566ZM22.4141 25.7656C20.2812 27.0575 17.7566 27.0781 15.2225 25.8378L23.5316 17.5297C23.8246 17.2366 23.8246 16.7615 23.5316 16.4684C23.2385 16.1754 22.7634 16.1754 22.4703 16.4684L14.1622 24.7812C12.9256 22.25 12.9434 19.7188 14.2344 17.5897C16.3053 14.1706 21.2281 12.2984 27.4822 12.5216C27.7062 18.7709 25.8331 23.6947 22.4141 25.7656Z" fill="#10430B"/>
</g>
<defs>
<clipPath id="clip0_818_1621">
<rect width="24" height="24" fill="white" transform="translate(8 8)"/>
</clipPath>
</defs>
</svg>
